<?xml version="1.0" encoding="UTF-8"?>
<!DOCTYPE svg PUBLIC "-//W3C//DTD SVG 1.1//EN" "http://www.w3.org/Graphics/SVG/1.1/DTD/svg11.dtd">
<!-- Creator: CorelDRAW X6 -->
<svg xmlns="http://www.w3.org/2000/svg" xml:space="preserve" width="12.7cm" height="12.7cm" version="1.1" style="shape-rendering:geometricPrecision; text-rendering:geometricPrecision; image-rendering:optimizeQuality; fill-rule:evenodd; clip-rule:evenodd"
viewBox="0 0 12700 12700"
 xmlns:xlink="http://www.w3.org/1999/xlink">
 <defs>
  <style type="text/css">
   <![CDATA[
    .fil0 {fill:black}
    .fil2 {fill:#0095FF}
    .fil1 {fill:yellow}
   ]]>
  </style>
 </defs>
 <g id="Layer_x0020_1">
  <metadata id="CorelCorpID_0Corel-Layer"/>
  <circle class="fil0" cx="6350" cy="6350" r="5398"/>
  <g id="_644876048">
   <path class="fil1" d="M5080 3175l2540 0c1270,0 1905,635 1905,1905l-5080 0 0 4445c-635,0 -1270,-635 -1270,-1270l0 -3175c0,-1270 635,-1905 1905,-1905zm3493 635c175,0 318,142 318,317 0,175 -142,318 -318,318 -175,0 -318,-142 -318,-318 0,-175 142,-317 318,-317z"/>
   <path class="fil2" d="M5715 5080c-1905,1270 -635,4445 1270,2540l2540 0c0,1270 -635,1905 -1905,1905l-3175 0c-1905,-1270 0,-6350 1270,-4445zm2858 3175c175,0 318,142 318,318 0,175 -142,318 -318,318 -175,0 -318,-142 -318,-318 0,-175 142,-318 318,-318z"/>
  </g>
 </g>
</svg>
